<?xml version="1.0" encoding="UTF-8"?>
<svg id="Layer_2" data-name="Layer 2" xmlns="http://www.w3.org/2000/svg" viewBox="0 0 1920 1080">
  <defs>
    <style>
      .cls-1 {
        fill: #ec65a4;
      }

      .cls-2 {
        fill: #64c5bf;
      }

      .cls-3 {
        fill: #2a2f5f;
      }
    </style>
  </defs>
  <g>
    <path class="cls-1" d="M796.4,343.59c23.23-37.41,98.69-82.1,142.61-96.79,119.81-40.07,157.57,21.66,257.14,60.48,66.95,26.1,142.55,38.78,213,18.96,5.45,4.93-22.73,18.96-25.61,20.26-95.08,42.75-193.42,1.73-291.95,28.07-36.85,9.85-154.64,60.46-173.62,90.58-24.09-13.16-37.46-39.24-57.06-57.06,14.19-17,26.17-35.06,43.47-49.56l70.64-47.16c-50.56,9.34-99.28,36.93-136.43,71.92-.16-.29-4.07-.36-6.17-2.39-12.08-11.69-26.28-23.53-36-37.3Z"/>
    <path class="cls-3" d="M796.4,343.59c9.73,13.77,23.92,25.61,36,37.3,2.11,2.04,6.01,2.1,6.17,2.39.7,1.27-1.24,6.53.52,9.33,2.74,4.35,20.59,14.37,21.81,15.48,19.6,17.81,32.97,43.9,57.06,57.06-12.61,20-52.63,61.22-73.15,79.49-16.44,14.63-30.36,28.32-52.12,12.29-12.84-9.46-11.71-22.79-29.07-7.43-45.22,40-58.47,104.93-113.28,135.51-72.76,40.6-111.53-12.6-69.84-79.76,24.41-39.32,50.4-44.91,85.22-68.59,19.09-12.98,34.43-30.14,52.55-44.21,5.63-10.73-4.55-11.09-8.7-16.15-17.05-20.82-14.43-38.09,3.34-57.42,21.08-22.92,49.91-48.69,73.01-70.23,3.17-2.95,10.16-4.57,10.47-5.07ZM647.54,616.49c-17.72,5-25.16,3.41-42.15-2.48,8.55,16.84,4.45,26.27-2.48,42.15,16.51-5.95,25.64-5.92,42.15,0-4.09-15.04-2.97-25.44,2.48-39.67Z"/>
  </g>
  <path class="cls-2" d="M1389.28,450.27c18.11,45.38,22.61,101.09,19.99,150.18-17.29,323.05-393.53,518.45-669.73,349.5-34.01-20.81-99.83-70.53-117.77-105.5-1.83-3.56-5.78-10.93-2.76-14.61,3.32,4.69,9.72,5.68,13.62,8.77,12.78,10.1,26.79,25.48,40.98,35.87,239.79,175.51,569.38,85.23,681.01-189.73,29.15-71.8,36.16-153.82,29.73-230.8l4.93-3.67Z"/>
  <path class="cls-1" d="M1192.43,155.99c23.4,15.83,48.5,36.77,67.95,57.29,5.21,5.49,46.64,54.07,42.1,58.35-5.01,1.08-6.63-1.11-10.02-3.6-11.41-8.36-24.12-24.03-35.93-33.53-139-111.79-323.62-141.31-485.85-61.77-134.63,66-234.95,213.04-247.18,363.1-2.11,25.86,4.28,63.38,0,86.83-.78,4.25-2.65,6.97-7.41,6.2-20.04-83.05-18.18-168.54,9.86-249.36C619.91,108.72,952.14-6.59,1192.43,155.99Z"/>
  <path class="cls-3" d="M912.84,632.44c-2.89,1.59-6.63,3.02-9.61,5.28-3.59,2.7-3.88,10.66-11.09,8.38-6.56-9.31-18.12-16.75-16.34-29.61l21.11,7.47,11.09-8.72c-10.68-12.45-29.26-.98-44.58-7.49-1.96-.83-11.41-10.75-12.04-12.94-.31-1.07-.29-17.94.03-18.83,1.16-3.27,23-20.15,27.72-21.05,9.33,1.94,24.89,35.31,9.06,28.1-6.89-3.14-20.9-15.21-18.7,3.77,4.08,5.72,31.88-3.2,40.86,2.55,16.51.94,30.26,27.78,2.49,43.09Z"/>
  <path class="cls-3" d="M983.55,566.9c-3.42-.98-6.59,2.2-8.53,2.44,0,0-8.7-12.65-9.92-12.4,2.3-10.14,14.19-10.06,16.83-21.61,5.34-23.37-10.13-35.05-32.44-29.96-4.03.92-34.25,20.94-34.03,22.99l2.91,5.88c2.62,1.62,8.21-.91,11.5.89,2.24,1.23,27.47,42.77,27.47,42.77,0,0-6.92,6.33-2.15,13.76,4.23,4.29,27.7-15.23,32.23-18.62l-3.87-6.14ZM955.23,542.05l-9.97-19.82c15.7-7.12,29.42,14.13,9.97,19.82Z"/>
  <path class="cls-3" d="M1038.33,542.1c-2.58-5.16-19.65-27.27-9.76-29.73,8.29-2.07,7.85,1.77,12.69,7.33s20.56-.09,20.71-4.31c.19-5.61-4.39-4.71-8.47-6.01-15.94-5.07-39.92-2.28-45.64-23.76-5.28-19.83,12.17-23.1,24.81-28.1,2.01-.79,2.84-9.12,11.86-3.57,1.74,1.06,12.66,23.1,12.36,24.78l-10.83,3.83-14.87-9.58s-5.38-.92-5.3,4.58,4.72,5.63,8.67,7.25,39.51,4.97,42.5,23.03c2.34,30.67-19.07,22.03-38.73,34.26Z"/>
  <path class="cls-2" d="M994.87,621.44c3.72-3.33,8.07-8.35,12.4-12.4.74,8.2-4.34,13.15-12.4,12.4Z"/>
  <g>
    <path class="cls-2" d="M992.39,626.4c18.48,20.67,42.55,38.27,57.06,62.02-34.52,41.66-73.31,69.6-121.55,93.16-3.57,1.74-6.21-.53-4.96,6.06,14.02,3.22,22.83-5.04,34.27-9.11,18.31-6.52,32.8-12.14,50.11-21.83,23.57-13.19,46.91-30.31,66.93-48.43,12.95,13.32,28.47,24.6,39.69,39.69-25.9,35.12-83.31,74.81-125.86,91.21-104.71,40.36-139.51,10.79-228.66-33.15-53.04-26.14-102.33-44.82-162.63-48.24-34.47-1.96-64.79,2.72-98.09,10,15.42-22.1,52.29-32.88,78.56-36.78,87.35-12.97,167.91,9.7,254.39-16.02,55.15-16.4,117.78-51.06,160.73-88.59Z"/>
    <g>
      <path class="cls-3" d="M1064.33,554.46c10.02-7.5,9.9-10.98,16.41-17.09,8.33-7.82,21.92-6.46,31.72-2.52,8.84,3.55,20.47,21.5,26.27,18.51,6.68-3.44,32.33-33.54,38.26-41.29,33.66-44.01,57.18-111.63,124.61-116.14,25.27-1.69,47.2,16.11,45.04,42.47-5.86,71.58-71.96,91.83-118.42,127.38-5.99,4.58-36.67,31.48-38.69,35.87-4.07,8.83,16.8,22.04,20.06,32.05,2.51,7.71,1.25,15.87-1.98,23.11-4.59,10.31-59.22,63.53-71.19,75.11-3.89,3.76-21.65,14.92-22.48,16.04-11.22-15.09-26.74-26.38-39.69-39.69-.53-.55-.53-4.23-2.39-6.2-5.45-5.76-13.56-16.39-22.42-13.65-14.51-23.75-38.58-41.35-57.06-62.02.99-.86,1.44-4.03,2.48-4.96,8.06.74,13.14-4.21,12.4-12.4,9-8.42,17.87-18.19,27.29-24.81,1.16-.81,4.24-1.03,7.51-3.54,5.68-4.35,5.07-8.07,7.37-11.34,3.47-4.96,4.7-4.63,4.96-4.96,5.87-.31,9.63-4.14,9.92-9.92ZM1307.44,435.39c-15.6,7.35-26.49,5.97-42.15,0,4.79,17.8,1.24,28.3-4.96,44.63,16.62-6.7,28.07-6.66,44.63,0,.47-7.94-5.69-12.7-5.18-21.07.48-7.76,9.11-14.67,7.66-23.56Z"/>
      <path class="cls-2" d="M1049.45,569.34c-2.3,3.28-1.69,7-7.37,11.34-3.28,2.51-6.36,2.73-7.51,3.54,1.04-7.11,7.92-13.52,14.88-14.88Z"/>
      <path class="cls-2" d="M1064.33,554.46c-.29,5.79-4.05,9.61-9.92,9.92.9-1.17.5-4.87,3.53-7.63,2.18-1.98,5.51-1.63,6.39-2.29Z"/>
    </g>
  </g>
</svg>